<svg id="Layer_1" data-name="Layer 1" xmlns="http://www.w3.org/2000/svg" viewBox="0 0 480.15 175.68"><defs><style>.cls-1{fill:#243e8f;}.cls-2{fill:#d03694;}.cls-3{fill:#63c7c9;}</style></defs><polygon class="cls-1" points="177.04 49.61 177.04 24.13 151.56 24.13 151.56 151.56 177.04 151.56 177.04 100.58 202.53 100.58 202.53 126.07 202.53 151.56 228.01 151.56 228.01 126.07 228.01 100.58 202.53 100.58 202.53 75.1 177.04 75.1 177.04 49.61"/><rect class="cls-1" x="202.53" y="24.13" width="25.49" height="50.97"/><polygon class="cls-2" points="278.99 49.61 304.47 49.61 304.47 24.13 228.01 24.13 228.01 151.56 304.47 151.56 304.47 126.07 253.5 126.07 253.5 100.58 278.99 100.58 278.99 75.1 253.5 75.1 253.5 49.61 278.99 49.61"/><polygon class="cls-2" points="431.9 49.61 457.39 49.61 457.39 24.13 380.93 24.13 380.93 100.58 431.9 100.58 431.9 126.07 380.93 126.07 380.93 151.56 457.39 151.56 457.39 75.1 406.42 75.1 406.42 49.61 431.9 49.61"/><polygon class="cls-1" points="355.44 24.13 355.44 75.1 329.96 75.1 329.96 24.13 304.47 24.13 304.47 100.58 355.44 100.58 355.44 126.07 304.47 126.07 304.47 151.56 380.93 151.56 380.93 24.13 355.44 24.13"/><path class="cls-3" d="M126.07,24.13H100.58V49.61H75.1V24.13H49.61V49.61H24.13V75.1H49.61v25.48H24.13v25.49H49.61v25.49H75.1V126.07h25.48v25.49h25.49V126.07h25.49V100.58H126.07V75.1h25.49V49.61H126.07Zm-25.49,76.45H75.1V75.1h25.48Z"/></svg>